<svg xmlns="http://www.w3.org/2000/svg"
  viewBox="0 0 602.869 103.797"
  width="602.869" height="103.797"
  role="img" aria-label="SolutiogeniZ">
  <defs>
    <linearGradient id="brandBlue" x1="0%" y1="0%" x2="100%" y2="100%">
      <stop offset="0%" stop-color="#4454F5"/>
      <stop offset="52%" stop-color="#5B6CFF"/>
      <stop offset="100%" stop-color="#7B61FF"/>
    </linearGradient>
  </defs>
  <g transform="translate(-1.641 79.219) scale(1 -1)">
    <path d="M 32.859 -1.125 C 50.250 -1.125 60.406 7.625 60.406 20.406 C 60.406 33.109 49.812 38.719 39.016 41.312 L 32.234 43.062 C 26.312 44.531 19.828 46.969 19.828 53.078 C 19.828 58.594 24.812 62.641 33.016 62.641 C 40.875 62.641 46.141 59.031 46.781 52.828 L 59.422 52.828 C 59.078 64.984 48.734 73.734 33.203 73.734 C 17.969 73.734 6.641 65.141 6.641 52.297 C 6.641 42.047 13.812 35.891 25.984 32.766 L 34.234 30.609 C 42.094 28.562 47.359 26.172 47.359 20.516 C 47.359 14.266 41.359 10.016 32.766 10.016 C 24.562 10.016 18.062 13.719 17.484 21.391 L 4.641 21.391 C 5.219 7.031 15.922 -1.125 32.859 -1.125 Z M 95.461 -1.125 C 111.383 -1.125 121.586 10.203 121.586 27.000 C 121.586 44.000 111.383 55.281 95.461 55.281 C 79.539 55.281 69.383 44.000 69.383 27.000 C 69.383 10.203 79.539 -1.125 95.461 -1.125 Z M 95.461 9.188 C 86.617 9.188 82.320 17.094 82.320 27.047 C 82.320 37.109 86.617 44.969 95.461 44.969 C 104.352 44.969 108.695 37.109 108.695 27.047 C 108.695 17.094 104.352 9.188 95.461 9.188 Z M 145.365 72.750 L 132.662 72.750 L 132.662 0.000 L 145.365 0.000 L 145.365 72.750 Z M 177.537 -0.688 C 185.443 -0.688 191.162 3.125 194.428 10.938 L 194.537 0.000 L 206.600 0.000 L 206.600 54.594 L 193.850 54.594 L 193.850 22.609 C 193.850 14.703 188.959 10.109 182.225 10.109 C 175.584 10.109 171.537 14.500 171.537 21.828 L 171.537 54.594 L 158.834 54.594 L 158.834 19.875 C 158.834 6.734 166.303 -0.688 177.537 -0.688 Z M 245.314 54.594 L 234.768 54.594 L 234.768 67.578 L 222.064 67.578 L 222.064 54.594 L 214.314 54.594 L 214.314 44.625 L 222.064 44.625 L 222.064 14.312 C 222.064 4.641 227.877 -0.734 238.330 -0.734 C 241.018 -0.734 244.049 -0.391 246.830 0.438 L 244.830 10.250 C 243.611 9.969 241.361 9.625 240.189 9.625 C 236.330 9.625 234.768 11.422 234.768 15.375 L 234.768 44.625 L 245.314 44.625 L 245.314 54.594 Z M 255.367 0.000 L 268.070 0.000 L 268.070 54.594 L 255.367 54.594 L 255.367 0.000 Z M 261.727 62.312 C 265.773 62.312 269.148 65.438 269.148 69.281 C 269.148 73.141 265.773 76.219 261.727 76.219 C 257.664 76.219 254.352 73.141 254.352 69.281 C 254.352 65.438 257.664 62.312 261.727 62.312 Z M 305.227 -1.125 C 321.148 -1.125 331.352 10.203 331.352 27.000 C 331.352 44.000 321.148 55.281 305.227 55.281 C 289.305 55.281 279.148 44.000 279.148 27.000 C 279.148 10.203 289.305 -1.125 305.227 -1.125 Z M 305.227 9.188 C 296.383 9.188 292.086 17.094 292.086 27.047 C 292.086 37.109 296.383 44.969 305.227 44.969 C 314.117 44.969 318.461 37.109 318.461 27.047 C 318.461 17.094 314.117 9.188 305.227 9.188 Z" fill="#0B0B0F"/>
    <path d="M 363.133 -21.578 C 377.820 -21.578 388.664 -14.750 388.664 -0.141 L 388.664 54.594 L 376.211 54.594 L 376.211 45.562 L 375.523 45.562 C 373.570 49.422 369.430 55.281 359.758 55.281 C 347.164 55.281 337.195 45.359 337.195 27.438 C 337.195 9.672 347.117 0.828 359.664 0.828 C 369.086 0.828 373.086 5.812 375.039 9.766 L 376.117 9.766 L 376.117 -0.531 C 376.117 -8.344 370.945 -11.922 363.070 -11.922 C 355.117 -11.922 351.742 -8.156 350.039 -5.078 L 339.305 -8.938 C 342.039 -16.156 349.992 -21.578 363.133 -21.578 Z M 363.227 10.844 C 354.727 10.844 350.180 17.484 350.180 27.547 C 350.180 37.453 354.633 44.828 363.227 44.828 C 371.617 44.828 376.164 37.891 376.164 27.547 C 376.164 17.094 371.523 10.844 363.227 10.844 Z M 426.260 -1.125 C 438.416 -1.125 446.916 4.688 449.557 13.531 L 437.885 15.922 C 436.166 11.281 431.979 8.844 426.400 8.844 C 418.260 8.844 412.729 14.016 412.400 23.734 L 450.385 23.734 L 450.385 27.734 C 450.385 46.875 438.760 55.281 425.432 55.281 C 409.807 55.281 399.744 43.750 399.744 26.953 C 399.744 9.859 409.807 -1.125 426.260 -1.125 Z M 412.447 32.375 C 413.025 39.656 417.713 45.312 425.479 45.312 C 433.041 45.312 437.291 40.188 438.025 32.375 L 412.447 32.375 Z M 473.969 31.984 C 473.969 39.891 478.844 44.484 485.641 44.484 C 492.281 44.484 496.281 40.094 496.281 32.766 L 496.281 0.000 L 508.969 0.000 L 508.969 34.719 C 508.969 47.859 501.547 55.281 490.328 55.281 C 482.312 55.281 476.656 51.375 473.422 43.703 L 473.281 54.594 L 461.266 54.594 L 461.266 0.000 L 473.969 0.000 L 473.969 31.984 Z M 522.447 0.000 L 535.150 0.000 L 535.150 54.594 L 522.447 54.594 L 522.447 0.000 Z M 528.807 62.312 C 532.854 62.312 536.229 65.438 536.229 69.281 C 536.229 73.141 532.854 76.219 528.807 76.219 C 524.744 76.219 521.432 73.141 521.432 69.281 C 521.432 65.438 524.744 62.312 528.807 62.312 Z M 547.744 0.000 L 601.510 0.000 L 601.510 10.984 L 577.635 10.984 C 572.744 10.984 567.869 10.984 562.979 10.750 C 565.916 14.266 568.791 17.828 571.275 21.391 L 601.260 64.547 L 601.260 72.750 L 547.557 72.750 L 547.557 61.766 L 571.869 61.766 C 576.604 61.766 581.338 61.766 586.025 62.016 C 583.291 58.688 580.604 55.375 578.260 52.047 L 547.744 8.109 L 547.744 0.000 Z" fill="url(#brandBlue)"/>
  </g>
</svg>