<svg xmlns="http://www.w3.org/2000/svg"
  viewBox="0 0 445 360"
  width="445" height="360"
  role="img" aria-label="SolutiogeniZ">
  <defs>
    <linearGradient id="brandBlue" x1="0%" y1="0%" x2="100%" y2="100%">
      <stop offset="0%" stop-color="#4454F5"/>
      <stop offset="52%" stop-color="#5B6CFF"/>
      <stop offset="100%" stop-color="#7B61FF"/>
    </linearGradient>
  </defs>
  <path d="M 321.00 15.00 L 105.00 15.00 L 104.00 16.00 L 98.00 16.00 L 97.00 17.00 L 89.00 18.00 L 67.00 27.00 L 51.00 38.00 L 40.00 49.00 L 30.00 63.00 L 21.00 83.00 L 21.00 86.00 L 18.00 95.00 L 18.00 100.00 L 17.00 101.00 L 17.00 122.00 L 18.00 123.00 L 18.00 128.00 L 19.00 129.00 L 20.00 137.00 L 23.00 146.00 L 26.00 151.00 L 26.00 153.00 L 34.00 166.00 L 41.00 175.00 L 53.00 186.00 L 66.00 195.00 L 76.00 200.00 L 91.00 205.00 L 95.00 205.00 L 101.00 207.00 L 107.00 207.00 L 108.00 208.00 L 200.00 208.00 L 210.00 211.00 L 217.00 215.00 L 229.00 228.00 L 233.00 239.00 L 233.00 255.00 L 228.00 267.00 L 220.00 276.00 L 213.00 281.00 L 202.00 285.00 L 67.00 285.00 L 66.00 286.00 L 61.00 286.00 L 54.00 288.00 L 41.00 296.00 L 32.00 306.00 L 16.00 333.00 L 10.00 341.00 L 8.00 345.00 L 9.00 346.00 L 9.00 349.00 L 11.00 350.00 L 202.00 350.00 L 205.00 349.00 L 217.00 329.00 L 232.00 307.00 L 233.00 304.00 L 248.00 282.00 L 249.00 279.00 L 259.00 265.00 L 265.00 254.00 L 291.00 215.00 L 292.00 211.00 L 289.00 205.00 L 289.00 203.00 L 281.00 189.00 L 275.00 181.00 L 260.00 166.00 L 249.00 158.00 L 228.00 148.00 L 218.00 146.00 L 217.00 145.00 L 213.00 145.00 L 212.00 144.00 L 207.00 144.00 L 206.00 143.00 L 111.00 143.00 L 110.00 142.00 L 106.00 142.00 L 100.00 140.00 L 89.00 132.00 L 83.00 122.00 L 82.00 119.00 L 82.00 104.00 L 86.00 95.00 L 95.00 86.00 L 103.00 82.00 L 110.00 81.00 L 111.00 80.00 L 268.00 80.00 L 275.00 78.00 L 287.00 71.00 L 299.00 58.00 L 322.00 24.00 L 324.00 19.00 Z" fill="#F5F5F7" fill-rule="evenodd"/>
  <path d="M 274.00 139.00 L 273.00 140.00 L 283.00 148.00 L 297.00 162.00 L 306.00 174.00 L 316.00 193.00 L 336.00 193.00 L 337.00 195.00 L 316.00 226.00 L 315.00 229.00 L 296.00 257.00 L 295.00 260.00 L 287.00 271.00 L 286.00 274.00 L 269.00 299.00 L 268.00 302.00 L 262.00 310.00 L 261.00 313.00 L 237.00 350.00 L 238.00 351.00 L 417.00 351.00 L 418.00 350.00 L 422.00 350.00 L 429.00 346.00 L 433.00 341.00 L 436.00 332.00 L 436.00 299.00 L 434.00 298.00 L 411.00 298.00 L 410.00 299.00 L 405.00 299.00 L 404.00 298.00 L 378.00 298.00 L 377.00 299.00 L 371.00 299.00 L 370.00 298.00 L 341.00 299.00 L 340.00 298.00 L 335.00 298.00 L 334.00 299.00 L 333.00 297.00 L 409.00 182.00 L 410.00 179.00 L 434.00 144.00 L 435.00 140.00 L 434.00 139.00 Z M 389.00 8.00 L 383.00 10.00 L 374.00 15.00 L 364.00 26.00 L 361.00 32.00 L 361.00 35.00 L 359.00 40.00 L 360.00 54.00 L 363.00 62.00 L 368.00 69.00 L 378.00 77.00 L 385.00 80.00 L 393.00 81.00 L 394.00 82.00 L 406.00 81.00 L 412.00 79.00 L 421.00 74.00 L 430.00 64.00 L 435.00 52.00 L 435.00 37.00 L 434.00 36.00 L 434.00 33.00 L 428.00 22.00 L 418.00 13.00 L 406.00 8.00 Z" fill="url(#brandBlue)" fill-rule="evenodd"/>
</svg>